<?xml version="1.0" standalone="no"?>
<!DOCTYPE svg PUBLIC "-//W3C//DTD SVG 20010904//EN"
 "http://www.w3.org/TR/2001/REC-SVG-20010904/DTD/svg10.dtd">
<svg version="1.0" xmlns="http://www.w3.org/2000/svg"
 width="512.000000pt" height="512.000000pt" viewBox="0 0 512.000000 512.000000"
 preserveAspectRatio="xMidYMid meet">

<g transform="translate(0.000000,512.000000) scale(0.100000,-0.100000)"
fill="#000000" stroke="none">
<path d="M3535 5028 c-2 -7 -15 -57 -29 -111 -13 -54 -26 -100 -28 -101 -1 -1
-19 -9 -39 -18 l-36 -16 -97 61 -98 60 -215 -215 -215 -215 60 -98 60 -99 -16
-35 c-9 -20 -17 -38 -19 -39 -1 -2 -50 -16 -110 -31 l-108 -27 -3 -272 -2
-272 -1128 -2 -1128 -3 -76 -37 c-91 -45 -147 -103 -191 -196 l-32 -67 0
-1056 0 -1055 37 -76 c45 -91 103 -147 196 -191 l67 -32 368 -3 367 -3 0 -159
0 -159 -189 -3 c-207 -3 -216 -6 -265 -72 -19 -25 -21 -42 -21 -166 0 -151 5
-167 69 -214 l27 -21 2150 -3 2149 -2 0 201 c0 374 -54 580 -218 829 -141 213
-389 409 -622 491 -36 12 -66 24 -68 25 -2 1 32 38 75 81 255 255 257 642 6
901 l-63 64 24 95 c13 52 26 96 28 97 1 1 19 9 39 18 l35 16 99 -60 98 -60
214 215 215 214 -60 98 -60 99 16 35 c9 20 17 38 19 39 1 2 50 16 110 31 l108
27 0 304 0 304 -108 27 c-60 15 -109 29 -110 31 -2 1 -10 19 -19 39 l-16 35
60 99 60 98 -215 214 -214 215 -98 -60 -99 -60 -35 16 c-20 9 -38 17 -39 19
-2 1 -16 50 -31 110 l-27 108 -302 3 c-237 2 -303 0 -307 -10z m506 -242 l22
-94 41 -12 c23 -7 73 -27 111 -46 l70 -33 84 50 84 51 125 -125 125 -125 -50
-83 -50 -82 33 -73 c18 -39 38 -90 44 -111 l12 -40 94 -22 94 -23 0 -178 0
-178 -94 -23 -94 -22 -12 -41 c-7 -23 -27 -72 -46 -111 l-33 -70 51 -84 51
-83 -125 -125 -125 -125 -83 50 -84 49 -72 -33 c-40 -18 -90 -38 -111 -44
l-39 -12 -30 -116 c-22 -90 -33 -116 -44 -113 -8 2 -37 11 -65 19 -55 16 -228
22 -287 9 l-38 -8 0 192 0 191 23 -6 c204 -60 405 -38 577 61 83 49 214 180
263 263 21 36 49 101 64 145 23 71 26 96 26 215 0 119 -3 144 -26 215 -38 115
-91 199 -182 290 -91 91 -175 144 -290 182 -71 23 -96 26 -215 26 -118 1 -145
-3 -212 -25 -119 -39 -204 -92 -294 -182 -195 -196 -258 -450 -178 -723 l6
-23 -181 0 -181 0 0 209 0 209 94 23 94 22 12 41 c7 23 27 73 46 111 l33 70
-51 84 -51 83 126 125 125 126 83 -50 82 -50 73 33 c40 18 90 38 111 43 l39
11 23 95 23 95 178 0 178 0 23 -94z m-95 -397 c192 -34 363 -189 430 -389 28
-83 26 -244 -4 -332 -106 -308 -431 -462 -736 -348 -43 16 -63 30 -75 53 -34
63 -99 133 -157 168 -52 32 -62 43 -83 95 -108 266 12 575 272 703 118 58 225
73 353 50z m-672 -961 c55 -16 138 -99 154 -154 8 -28 12 -126 12 -301 l0
-260 -40 -27 c-23 -15 -59 -43 -80 -62 l-39 -36 -3 296 c-3 279 -4 296 -24
322 -11 15 -33 37 -48 48 -27 21 -30 21 -1366 21 -1336 0 -1339 0 -1366 -21
-15 -11 -37 -33 -48 -48 -21 -27 -21 -37 -24 -857 l-2 -829 -80 0 -80 0 0 856
c0 643 3 867 12 898 15 51 99 137 148 153 53 17 2818 17 2874 1z m-154 -1108
l0 -800 -80 0 -80 0 0 720 0 720 -240 0 -240 0 0 -720 0 -720 -80 0 -80 0 0
560 0 560 -240 0 -240 0 0 -560 0 -560 -80 0 -80 0 0 400 0 400 -240 0 -240 0
0 -400 0 -400 -320 0 -320 0 0 800 0 800 1280 0 1280 0 0 -800z m-320 -160 l0
-640 -80 0 -80 0 0 640 0 640 80 0 80 0 0 -640z m1075 465 c237 -62 393 -291
358 -529 -28 -194 -168 -351 -358 -401 -250 -65 -513 94 -580 350 -89 343 237
669 580 580z m-1715 -625 l0 -480 -80 0 -80 0 0 480 0 480 80 0 80 0 0 -480z
m-640 -160 l0 -320 -80 0 -80 0 0 320 0 320 80 0 80 0 0 -320z m1854 -188 c20
-15 24 -23 15 -27 -41 -14 -102 -35 -105 -35 -2 0 -4 32 -4 72 l0 72 33 -30
c17 -17 45 -40 61 -52z m556 -147 c52 -9 99 -20 103 -24 8 -8 -262 -1001 -273
-1001 -11 0 -281 993 -273 1001 14 14 172 37 263 38 47 0 128 -6 180 -14z
m-441 -666 c90 -324 162 -592 159 -594 -2 -2 -65 104 -140 236 l-137 240 44
88 44 88 -93 92 -92 92 -22 137 c-12 75 -22 144 -22 153 0 12 67 56 90 58 3 1
79 -265 169 -590z m756 569 c25 -12 45 -29 45 -37 0 -9 -10 -78 -22 -153 l-22
-137 -92 -92 -93 -92 44 -88 44 -87 -137 -240 c-75 -132 -139 -238 -141 -236
-3 3 322 1184 326 1184 1 0 23 -10 48 -22z m-1417 -137 c-45 -49 -103 -120
-128 -159 l-45 -71 -1104 0 c-839 -1 -1114 2 -1145 11 -55 16 -138 99 -154
154 -7 23 -12 67 -12 98 l0 56 1336 0 1336 0 -84 -89z m261 -53 c6 -35 16 -97
22 -138 11 -74 12 -76 81 -146 l70 -71 -37 -72 -36 -72 124 -217 c68 -119 129
-227 136 -239 l12 -23 -211 0 -210 0 0 320 0 320 -80 0 -80 0 0 -320 0 -320
-121 0 -122 0 6 163 c3 89 13 192 21 228 50 220 159 415 319 572 44 42 83 77
87 77 5 0 13 -28 19 -62z m1448 -15 c160 -157 267 -349 319 -573 8 -36 18
-138 21 -227 l6 -163 -122 0 -121 0 0 320 0 320 -80 0 -80 0 0 -320 0 -320
-210 0 -211 0 12 23 c7 12 68 120 136 239 l124 217 -36 72 -37 72 70 71 c69
70 70 72 81 146 24 154 33 200 41 200 4 0 43 -35 87 -77z m-1972 -340 c-14
-38 -54 -182 -60 -219 -3 -22 -8 -49 -11 -61 l-4 -23 -605 0 -605 0 0 160 0
160 646 0 c611 0 646 -1 639 -17z m-85 -543 l0 -80 -840 0 -840 0 0 80 0 80
840 0 840 0 0 -80z"/>
<path d="M3746 4230 c-63 -16 -153 -70 -197 -117 -22 -24 -55 -74 -72 -111
-29 -61 -32 -76 -32 -163 0 -90 2 -99 37 -171 45 -91 103 -147 196 -191 61
-29 76 -32 162 -32 86 0 101 3 162 32 93 44 151 100 196 191 35 72 37 81 37
172 0 91 -2 100 -37 172 -68 136 -188 217 -336 224 -42 2 -94 -1 -116 -6z
m168 -162 c86 -26 166 -136 166 -228 0 -124 -116 -240 -240 -240 -63 0 -114
23 -165 75 -102 101 -102 229 0 330 70 71 145 90 239 63z"/>
<path d="M720 2880 l0 -80 80 0 80 0 0 80 0 80 -80 0 -80 0 0 -80z"/>
<path d="M1040 2880 l0 -80 80 0 80 0 0 80 0 80 -80 0 -80 0 0 -80z"/>
<path d="M1360 2880 l0 -80 80 0 80 0 0 80 0 80 -80 0 -80 0 0 -80z"/>
<path d="M720 2560 l0 -80 400 0 400 0 0 80 0 80 -400 0 -400 0 0 -80z"/>
</g>
</svg>
