<?xml version="1.0" standalone="no"?>
<!DOCTYPE svg PUBLIC "-//W3C//DTD SVG 20010904//EN"
 "http://www.w3.org/TR/2001/REC-SVG-20010904/DTD/svg10.dtd">
<svg version="1.0" xmlns="http://www.w3.org/2000/svg"
 width="512.000000pt" height="512.000000pt" viewBox="0 0 512.000000 512.000000"
 preserveAspectRatio="xMidYMid meet">

<g transform="translate(0.000000,512.000000) scale(0.100000,-0.100000)"
fill="#000000" stroke="none">
<path d="M3390 4954 c-14 -2 -56 -9 -95 -15 -97 -16 -245 -64 -340 -111 -196
-99 -183 -86 -1437 -1332 -887 -881 -1180 -1177 -1189 -1204 -42 -128 89 -252
211 -199 22 10 463 440 1200 1172 1237 1228 1233 1225 1399 1295 289 123 617
100 882 -62 111 -68 249 -206 317 -317 161 -264 185 -591 64 -881 -69 -162
-77 -171 -1187 -1295 -1444 -1463 -1381 -1402 -1485 -1452 -194 -95 -387 -95
-580 0 -152 74 -275 222 -326 392 -13 43 -18 93 -18 175 0 130 14 192 71 305
33 65 98 132 922 953 995 990 944 946 1086 946 166 0 279 -114 278 -279 0
-142 50 -84 -879 -1015 -904 -907 -857 -853 -839 -947 9 -49 69 -109 118 -118
94 -18 38 -67 958 853 820 821 847 849 887 927 56 111 75 189 75 310 -1 80 -6
116 -27 180 -80 249 -304 410 -566 409 -114 -1 -199 -21 -300 -71 -68 -34
-108 -70 -450 -404 -206 -202 -623 -616 -925 -921 -611 -614 -613 -617 -681
-815 -118 -347 -35 -718 220 -981 284 -294 728 -373 1100 -197 150 71 159 79
1428 1363 1296 1311 1288 1303 1383 1492 46 91 88 211 111 322 25 116 25 380
0 496 -54 251 -163 457 -335 636 -185 191 -393 309 -651 367 -81 19 -340 34
-400 23z"/>
</g>
</svg>
