<?xml version="1.0" standalone="no"?>
<!DOCTYPE svg PUBLIC "-//W3C//DTD SVG 20010904//EN"
 "http://www.w3.org/TR/2001/REC-SVG-20010904/DTD/svg10.dtd">
<svg version="1.0" xmlns="http://www.w3.org/2000/svg"
 width="512.000000pt" height="512.000000pt" viewBox="0 0 512.000000 512.000000"
 preserveAspectRatio="xMidYMid meet">

<g transform="translate(0.000000,512.000000) scale(0.100000,-0.100000)"
fill="#008000" stroke="none">
<path d="M4240 4005 c-22 -10 -484 -465 -1255 -1235 l-1220 -1220 -430 431
c-242 243 -444 437 -462 445 -60 26 -147 11 -196 -34 -55 -50 -73 -152 -38
-220 11 -20 248 -265 528 -544 433 -432 514 -508 548 -517 50 -14 71 -13 112
2 42 16 2627 2587 2654 2639 40 78 15 180 -57 234 -45 34 -130 43 -184 19z"/>
</g>
</svg>
