<?xml version="1.0" standalone="no"?>
<!DOCTYPE svg PUBLIC "-//W3C//DTD SVG 20010904//EN"
 "http://www.w3.org/TR/2001/REC-SVG-20010904/DTD/svg10.dtd">
<svg version="1.0" xmlns="http://www.w3.org/2000/svg"
 width="512.000000pt" height="512.000000pt" viewBox="0 0 512.000000 512.000000"
 preserveAspectRatio="xMidYMid meet">

<g transform="translate(0.000000,512.000000) scale(0.100000,-0.100000)"
fill="#000000" stroke="none">
<path d="M1502 3548 c-96 -95 -254 -257 -352 -359 -140 -146 -181 -195 -191
-227 -25 -85 -21 -90 352 -471 187 -191 354 -352 371 -359 66 -28 138 23 138
100 0 38 -8 48 -219 266 -120 125 -237 245 -260 267 -23 21 -41 43 -41 48 0 4
420 6 933 4 809 -3 941 -5 997 -19 280 -68 508 -246 632 -493 38 -75 76 -203
88 -296 5 -46 10 -186 10 -312 l0 -229 29 -29 c49 -48 136 -37 167 22 14 28
15 67 12 323 -5 273 -6 297 -31 388 -100 376 -378 678 -735 797 -167 57 -122
54 -1152 60 l-955 6 246 250 c135 138 253 261 262 275 46 67 -4 160 -86 160
-39 0 -46 -5 -215 -172z"/>
</g>
</svg>
